<!DOCTYPE svg PUBLIC "-//W3C//DTD SVG 1.1//EN" "http://www.w3.org/Graphics/SVG/1.1/DTD/svg11.dtd">
<!-- Uploaded to: SVG Repo, www.svgrepo.com, Transformed by: SVG Repo Mixer Tools -->
<svg version="1.1" id="Layer_1" xmlns="http://www.w3.org/2000/svg" xmlns:xlink="http://www.w3.org/1999/xlink" viewBox="0 0 512 512" xml:space="preserve" width="256px" height="256px" fill="#000000" stroke="#000000">
<g id="SVGRepo_bgCarrier" stroke-width="0"/>
<g id="SVGRepo_tracerCarrier" stroke-linecap="round" stroke-linejoin="round"/>
<g id="SVGRepo_iconCarrier"> <path d="M0,346.68v-310c0-5.44,4.72-10,10.48-10H501.6c5.68,0,10.4,4.56,10.4,10v310H0z"/> <g> <path style="fill:#999999;" d="M512,346.68v42.64c0,5.92-4.72,10.72-10.48,10.72H10.48C4.72,400.04,0,395.24,0,389.4v-42.64h512 V346.68z"/> <polygon style="fill:#999999;" points="330.64,474.68 181.36,474.68 192,400.04 320,400.04 "/> </g> <g> <polygon style="fill:#666666;" points="192,400.04 320,400.04 326.64,446.6 189.52,417.4 "/> <rect x="144" y="474.68" style="fill:#666666;" width="224" height="10.64"/> </g> <g> <circle style="fill:#FFFFFF;" cx="149.28" cy="69.4" r="10.72"/> <circle style="fill:#FFFFFF;" cx="106.64" cy="69.4" r="10.72"/> <circle style="fill:#FFFFFF;" cx="64" cy="69.4" r="10.72"/> </g> <rect x="181.28" y="64.04" style="fill:#999999;" width="277.36" height="10.64"/> <rect x="266.64" y="144.04" style="fill:#F33052;" width="170.64" height="21.36"/> <rect x="266.64" y="186.68" style="fill:#FFFFFF;" width="170.64" height="10.64"/> <rect x="266.64" y="229.4" style="fill:#999999;" width="170.64" height="10.64"/> <rect x="266.64" y="272.04" style="fill:#F33052;" width="170.64" height="10.64"/> <rect x="266.64" y="208.04" style="fill:#999999;" width="170.64" height="10.64"/> <g> <path style="fill:#F33052;" d="M213.36,218.68H96c-5.84,0-10.64-4.8-10.64-10.64V133.4c0-5.84,4.8-10.64,10.64-10.64h117.36 c5.84,0,10.64,4.8,10.64,10.64v74.64C224,213.88,219.2,218.68,213.36,218.68z"/> <polygon style="fill:#F33052;" points="192,250.68 192,208.04 138.64,208.04 "/> <path style="fill:#F33052;" d="M143.6,297.48H80.4c-3.12,0-5.76-2.56-5.76-5.76v-40.24c0-3.12,2.56-5.76,5.76-5.76h63.2 c3.12,0,5.76,2.56,5.76,5.76v40.24C149.36,294.92,146.72,297.48,143.6,297.48z"/> <polygon style="fill:#F33052;" points="137.84,314.68 137.84,291.72 109.12,291.72 "/> </g> <g> <rect x="149.36" y="154.68" style="fill:#FFFFFF;" width="10.64" height="10.64"/> <rect x="128" y="154.68" style="fill:#FFFFFF;" width="10.64" height="10.64"/> <rect x="106.64" y="154.68" style="fill:#FFFFFF;" width="10.64" height="10.64"/> <rect x="170.64" y="154.68" style="fill:#FFFFFF;" width="10.64" height="10.64"/> <rect x="192" y="154.68" style="fill:#FFFFFF;" width="10.64" height="10.64"/> <rect x="149.36" y="176.04" style="fill:#FFFFFF;" width="10.64" height="10.64"/> <rect x="170.64" y="176.04" style="fill:#FFFFFF;" width="10.64" height="10.64"/> <rect x="192" y="176.04" style="fill:#FFFFFF;" width="10.64" height="10.64"/> <rect x="85.36" y="261.4" style="fill:#FFFFFF;" width="10.64" height="10.64"/> <rect x="106.64" y="261.4" style="fill:#FFFFFF;" width="10.64" height="10.64"/> <rect x="128" y="261.4" style="fill:#FFFFFF;" width="10.64" height="10.64"/> <path style="opacity:0.2;fill:#FFFFFF;enable-background:new ;" d="M460.72,26.68H10.48C4.72,26.68,0,31.24,0,36.68v179.44 L460.72,26.68z"/> </g> </g>
</svg>